HIERARCHY
ROOT hip
{
	OFFSET 0.000000 0.000000 0.000000
	CHANNELS 6 Xposition Yposition Zposition Xrotation Zrotation Yrotation 
	JOINT abdomen
	{
		OFFSET 0.000000 3.422050 0.000000
		CHANNELS 3 Xrotation Zrotation Yrotation 
		JOINT chest
		{
			OFFSET 0.000000 8.486693 -0.684411
			CHANNELS 3 Xrotation Zrotation Yrotation 
			JOINT neck
			{
				OFFSET 0.000000 10.266162 -0.273764
				CHANNELS 3 Xrotation Zrotation Yrotation 
				JOINT head
				{
					OFFSET 0.000000 3.148285 0.000000
					CHANNELS 3 Xrotation Zrotation Yrotation 
					End Site
					{
						OFFSET 0.000000 3.148289 0.000000
					}
				}
			}
			JOINT lCollar
			{
				OFFSET 3.422053 6.707223 -0.821293
				CHANNELS 3 Yrotation Zrotation Xrotation 
				JOINT lShldr
				{
					OFFSET 3.285171 0.000000 0.000000
					CHANNELS 3 Zrotation Yrotation Xrotation 
					JOINT lForeArm
					{
						OFFSET 10.129278 0.000000 0.000000
						CHANNELS 3 Yrotation Zrotation Xrotation 
						JOINT lHand
						{
							OFFSET 8.486692 0.000000 0.000000
							CHANNELS 3 Zrotation Yrotation Xrotation 
							End Site
							{
								OFFSET 4.106464 0.000000 0.000000
							}
						}
					}
				}
			}
			JOINT rCollar
			{
				OFFSET -3.558935 6.707223 -0.821293
				CHANNELS 3 Yrotation Zrotation Xrotation 
				JOINT rShldr
				{
					OFFSET -3.148289 0.000000 0.000000
					CHANNELS 3 Zrotation Yrotation Xrotation 
					JOINT rForeArm
					{
						OFFSET -10.266159 0.000000 0.000000
						CHANNELS 3 Yrotation Zrotation Xrotation 
						JOINT rHand
						{
							OFFSET -8.349810 0.000000 0.000000
							CHANNELS 3 Zrotation Yrotation Xrotation 
							End Site
							{
								OFFSET -4.106464 0.000000 0.000000
							}
						}
					}
				}
			}
		}
	}
	JOINT lThigh
	{
		OFFSET 5.338403 -1.642589 1.368821
		CHANNELS 3 Xrotation Zrotation Yrotation 
		JOINT lShin
		{
			OFFSET -2.053232 -20.121670 0.000000
			CHANNELS 3 Xrotation Zrotation Yrotation 
			JOINT lFoot
			{
				OFFSET 0.000000 -19.300380 -1.231939
				CHANNELS 3 Xrotation Yrotation Zrotation 
				End Site
				{
					OFFSET 0.000000 -2.463878 4.653993
				}
			}
		}
	}
	JOINT rThigh
	{
		OFFSET -5.338403 -1.642589 1.368821
		CHANNELS 3 Xrotation Zrotation Yrotation 
		JOINT rShin
		{
			OFFSET 2.053232 -20.121670 0.000000
			CHANNELS 3 Xrotation Zrotation Yrotation 
			JOINT rFoot
			{
				OFFSET 0.000000 -19.300380 -1.231939
				CHANNELS 3 Xrotation Yrotation Zrotation 
				End Site
				{
					OFFSET 0.000000 -2.463878 4.653993
				}
			}
		}
	}
}
MOTION
Frames: 15
Frame Time: 0.033325
0.000000 43.528500 0.000000 0.000000 0.000000 0.000000 0.000000 0.000000 0.000000 0.000000 0.000000 0.000000 0.000000 0.000000 0.000000 0.000000 0.000000 0.000000 0.000000 0.000000 0.000000 0.000000 0.000000 0.000000 0.000000 0.000000 0.000000 0.000000 0.000000 0.000000 0.000000 0.000000 0.000000 0.000000 0.000000 0.000000 0.000000 0.000000 0.000000 0.000000 0.000000 0.000000 0.000000 0.000000 0.000000 0.000000 0.000000 0.000000 0.000000 0.000000 0.000000 0.000000 0.000000 0.000000 0.000000 0.000000 0.000000 0.000000 0.000000 0.000000 
-12.138111 16.912365 1.480839 27.997561 0.000000 0.000000 76.015945 1.122807 -0.087882 5.148513 10.985897 -0.385521 16.261497 8.261761 -2.003758 -21.628950 -0.001358 -18.001799 71.669838 -57.831608 6.703256 -43.479248 -2.326020 14.752380 20.771193 -24.632835 10.660107 11.774352 0.493805 8.134909 -48.802700 46.441460 -16.540726 44.480835 6.125422 14.339238 -32.044743 36.130539 16.536758 -28.071890 9.573497 1.144435 -74.442917 5.618557 0.030975 136.151703 5.070936 -1.545970 60.590603 8.131358 2.744608 -74.444046 -5.635157 -0.110648 136.131973 -5.156496 1.539947 61.192532 -8.186223 -2.632970 
-12.138111 16.912365 1.480839 27.997562 0.000000 0.000000 76.015945 1.122807 -0.087882 5.148514 10.985898 -0.385521 16.246014 6.785713 -2.006823 -22.763973 -0.001444 -18.001686 71.669853 -57.831623 6.703259 -43.479248 -2.326021 14.752382 20.771193 -24.632835 10.660107 11.774353 0.493805 8.134909 -48.802696 46.441463 -16.540731 44.480835 6.125422 14.339239 -32.044743 36.130539 16.536758 -28.071892 9.573498 1.144435 -74.442917 5.618558 0.030975 136.151703 5.070936 -1.545970 60.590603 8.131358 2.744608 -74.444046 -5.635157 -0.110648 136.131973 -5.156496 1.539947 61.192532 -8.186224 -2.632971 
-12.138111 16.912365 1.480839 27.997559 0.000000 0.000000 76.015945 1.122807 -0.087882 5.148513 10.985896 -0.385521 16.230610 5.305940 -2.009485 -23.900682 -0.001528 -18.001572 71.669823 -57.831596 6.703254 -43.479248 -2.326020 14.752380 20.771193 -24.632835 10.660107 11.774351 0.493804 8.134908 -48.802689 46.441456 -16.540724 44.480835 6.125421 14.339238 -32.044743 36.130539 16.536758 -28.071888 9.573497 1.144435 -74.442917 5.618557 0.030975 136.151703 5.070936 -1.545970 60.590603 8.131358 2.744608 -74.444046 -5.635156 -0.110649 136.131973 -5.156495 1.539947 61.192532 -8.186223 -2.632970 
-12.138111 16.912365 1.480839 27.997561 0.000000 0.000000 76.015945 1.122807 -0.087882 5.148513 10.985896 -0.385521 16.215275 3.822926 -2.011748 -25.038855 -0.001609 -18.001459 71.669838 -57.831608 6.703258 -43.479248 -2.326020 14.752380 20.771193 -24.632835 10.660106 11.774352 0.493805 8.134909 -48.802696 46.441456 -16.540722 44.480835 6.125422 14.339238 -32.044743 36.130539 16.536758 -28.071888 9.573497 1.144435 -74.442917 5.618557 0.030975 136.151703 5.070936 -1.545970 60.590603 8.131358 2.744608 -74.444046 -5.635157 -0.110648 136.131973 -5.156496 1.539947 61.192532 -8.186223 -2.632970 
-12.138111 16.912365 1.480839 27.997562 0.000000 0.000000 76.015945 1.122807 -0.087882 5.148513 10.985897 -0.385521 16.199991 2.337158 -2.013614 -26.178267 -0.001689 -18.001341 71.669838 -57.831608 6.703256 -43.479248 -2.326020 14.752382 20.771193 -24.632835 10.660107 11.774352 0.493805 8.134909 -48.802700 46.441463 -16.540728 44.480835 6.125422 14.339239 -32.044743 36.130539 16.536758 -28.071890 9.573497 1.144435 -74.442917 5.618558 0.030975 136.151703 5.070936 -1.545970 60.590603 8.131358 2.744608 -74.444046 -5.635157 -0.110649 136.131973 -5.156496 1.539947 61.192532 -8.186223 -2.632970 
-12.138111 16.912365 1.480839 27.997561 0.000000 0.000000 76.015945 1.122807 -0.087882 5.148514 10.985897 -0.385521 16.184744 0.849126 -2.015084 -27.318695 -0.001765 -18.001221 71.669846 -57.831615 6.703257 -43.479248 -2.326020 14.752380 20.771193 -24.632835 10.660107 11.774352 0.493805 8.134909 -48.802700 46.441463 -16.540728 44.480835 6.125422 14.339238 -32.044743 36.130539 16.536758 -28.071890 9.573497 1.144435 -74.442917 5.618557 0.030975 136.151703 5.070936 -1.545970 60.590603 8.131358 2.744608 -74.444046 -5.635157 -0.110648 136.131973 -5.156495 1.539947 61.192532 -8.186223 -2.632970 
-12.138111 16.912365 1.480839 27.997561 0.000000 0.000000 76.015945 1.122807 -0.087882 5.148513 10.985897 -0.385521 16.169519 -0.640667 -2.016159 -28.459911 -0.001840 -18.001101 71.669830 -57.831608 6.703253 -43.479248 -2.326020 14.752380 20.771193 -24.632835 10.660107 11.774351 0.493804 8.134908 -48.802692 46.441460 -16.540728 44.480835 6.125422 14.339238 -32.044739 36.130535 16.536757 -28.071888 9.573497 1.144435 -74.442917 5.618557 0.030975 136.151703 5.070936 -1.545970 60.590603 8.131358 2.744608 -74.444046 -5.635157 -0.110648 136.131973 -5.156496 1.539947 61.192532 -8.186223 -2.632970 
-12.138111 16.912365 1.480839 27.997562 0.000000 0.000000 76.015945 1.122807 -0.087882 5.148513 10.985896 -0.385521 16.154301 -2.131724 -2.016839 -29.601702 -0.001913 -18.000978 71.669838 -57.831608 6.703256 -43.479248 -2.326020 14.752382 20.771193 -24.632835 10.660107 11.774352 0.493805 8.134909 -48.802700 46.441460 -16.540726 44.480843 6.125422 14.339239 -32.044743 36.130543 16.536760 -28.071890 9.573497 1.144435 -74.442917 5.618557 0.030975 136.151718 5.070937 -1.545970 60.590603 8.131358 2.744608 -74.444046 -5.635157 -0.110648 136.131973 -5.156496 1.539947 61.192532 -8.186223 -2.632970 
-12.138111 16.912365 1.480839 27.997561 0.000000 0.000000 76.015945 1.122807 -0.087882 5.148513 10.985897 -0.385521 16.139069 -3.623538 -2.017123 -30.743835 -0.001983 -18.000858 71.669846 -57.831608 6.703259 -43.479248 -2.326020 14.752380 20.771193 -24.632835 10.660107 11.774353 0.493805 8.134909 -48.802700 46.441460 -16.540726 44.480835 6.125422 14.339238 -32.044743 36.130543 16.536760 -28.071890 9.573497 1.144435 -74.442917 5.618557 0.030975 136.151703 5.070936 -1.545970 60.590603 8.131357 2.744609 -74.444046 -5.635157 -0.110648 136.131973 -5.156496 1.539947 61.192532 -8.186223 -2.632970 
-12.138111 16.912365 1.480839 27.997561 0.000000 0.000000 76.015945 1.122807 -0.087882 5.148514 10.985897 -0.385521 16.123816 -5.115607 -2.017010 -31.886076 -0.002051 -18.000732 71.669846 -57.831615 6.703259 -43.479248 -2.326020 14.752380 20.771193 -24.632835 10.660107 11.774353 0.493804 8.134909 -48.802700 46.441460 -16.540726 44.480835 6.125422 14.339238 -32.044746 36.130543 16.536760 -28.071894 9.573498 1.144435 -74.442917 5.618557 0.030975 136.151703 5.070936 -1.545970 60.590603 8.131358 2.744608 -74.444046 -5.635157 -0.110648 136.131973 -5.156496 1.539947 61.192532 -8.186223 -2.632970 
-12.138111 16.912365 1.480839 27.997561 0.000000 0.000000 76.015945 1.122807 -0.087882 5.148514 10.985897 -0.385521 16.108517 -6.607421 -2.016496 -33.028206 -0.002116 -18.000605 71.669838 -57.831615 6.703253 -43.479248 -2.326020 14.752380 20.771194 -24.632837 10.660108 11.774354 0.493805 8.134909 -48.802700 46.441460 -16.540726 44.480831 6.125422 14.339238 -32.044746 36.130547 16.536760 -28.071890 9.573497 1.144435 -74.442917 5.618557 0.030975 136.151718 5.070936 -1.545970 60.590603 8.131358 2.744608 -74.444031 -5.635156 -0.110649 136.131973 -5.156495 1.539947 61.192532 -8.186223 -2.632970 
-12.138111 16.912365 1.480839 27.997559 0.000000 0.000000 76.015945 1.122807 -0.087882 5.148514 10.985897 -0.385521 16.093166 -8.098479 -2.015580 -34.169987 -0.002178 -18.000475 71.669838 -57.831608 6.703256 -43.479248 -2.326020 14.752380 20.771193 -24.632835 10.660107 11.774352 0.493805 8.134909 -48.802692 46.441460 -16.540728 44.480835 6.125421 14.339238 -32.044743 36.130539 16.536758 -28.071890 9.573497 1.144435 -74.442917 5.618557 0.030975 136.151703 5.070936 -1.545970 60.590603 8.131357 2.744608 -74.444046 -5.635157 -0.110648 136.131958 -5.156495 1.539947 61.192532 -8.186223 -2.632970 
-12.138111 16.912365 1.480839 27.997561 0.000000 0.000000 76.015945 1.122807 -0.087882 5.148513 10.985896 -0.385521 16.077740 -9.588273 -2.014255 -35.311211 -0.002239 -18.000351 71.669838 -57.831608 6.703256 -43.479248 -2.326020 14.752380 20.771193 -24.632835 10.660107 11.774352 0.493805 8.134909 -48.802692 46.441460 -16.540728 44.480835 6.125422 14.339238 -32.044743 36.130539 16.536758 -28.071890 9.573497 1.144435 -74.442917 5.618557 0.030975 136.151718 5.070937 -1.545970 60.590603 8.131358 2.744608 -74.444046 -5.635157 -0.110648 136.131973 -5.156496 1.539947 61.192532 -8.186223 -2.632970 
-12.138111 16.912365 1.480839 27.997562 0.000000 0.000000 76.015945 1.122807 -0.087882 5.148513 10.985896 -0.385521 16.062223 -11.076302 -2.012518 -36.451645 -0.002296 -18.000221 71.669838 -57.831608 6.703258 -43.479252 -2.326020 14.752384 20.771193 -24.632835 10.660106 11.774351 0.493804 8.134908 -48.802692 46.441460 -16.540728 44.480843 6.125422 14.339239 -32.044743 36.130539 16.536758 -28.071890 9.573497 1.144435 -74.442917 5.618558 0.030975 136.151703 5.070936 -1.545970 60.590603 8.131358 2.744608 -74.444046 -5.635157 -0.110648 136.131973 -5.156496 1.539947 61.192532 -8.186223 -2.632970 
